# ProBuilder 6.0.9
# https://unity3d.com/unity/features/worldbuilding/probuilder
# 2/27/2026 12:12:12 AM

mtllib ./Ladder_Pipe.mtl
o Ladder Pipe

g Cube (158)
v 16.00988 11 -34.00801
v 15.00988 11 -34.00801
v 16.00988 12 -34.00801
v 15.00988 12 -34.00801
v 15.00988 11 -35.00801
v 15.00988 12 -35.00801
v 16.00988 11 -35.00801
v 16.00988 12 -35.00801

vt 1 0
vt 0 0
vt 1 1
vt 0 1

vn 0 0 1
vn -1 0 0
vn 0 0 -1
vn 1 0 0
vn 0 1 0
vn 0 -1 0

usemtl Wall
f 3/3/1 4/4/1 2/2/1 1/1/1
f 4/3/2 6/4/2 5/2/2 2/1/2
f 6/3/3 8/4/3 7/2/3 5/1/3
f 8/3/4 3/4/4 1/2/4 7/1/4
f 8/2/5 6/1/5 4/3/5 3/4/5
f 1/3/6 2/4/6 5/2/6 7/1/6

g Cube (159)
v 16.00988 12 -34.00801
v 15.00988 12 -34.00801
v 16.00988 13 -34.00801
v 15.00988 13 -34.00801
v 15.00988 12 -35.00801
v 15.00988 13 -35.00801
v 16.00988 12 -35.00801
v 16.00988 13 -35.00801

vt 1 0
vt 0 0
vt 1 1
vt 0 1

vn 0 0 1
vn -1 0 0
vn 0 0 -1
vn 1 0 0
vn 0 1 0
vn 0 -1 0

usemtl Wall
f 11/7/7 12/8/7 10/6/7 9/5/7
f 12/7/8 14/8/8 13/6/8 10/5/8
f 14/7/9 16/8/9 15/6/9 13/5/9
f 16/7/10 11/8/10 9/6/10 15/5/10
f 16/6/11 14/5/11 12/7/11 11/8/11
f 9/7/12 10/8/12 13/6/12 15/5/12

g Cube (160)
v 16.00988 13 -34.00801
v 15.00988 13 -34.00801
v 16.00988 14 -34.00801
v 15.00988 14 -34.00801
v 15.00988 13 -35.00801
v 15.00988 14 -35.00801
v 16.00988 13 -35.00801
v 16.00988 14 -35.00801

vt 1 0
vt 0 0
vt 1 1
vt 0 1

vn 0 0 1
vn -1 0 0
vn 0 0 -1
vn 1 0 0
vn 0 1 0
vn 0 -1 0

usemtl Wall
f 19/11/13 20/12/13 18/10/13 17/9/13
f 20/11/14 22/12/14 21/10/14 18/9/14
f 22/11/15 24/12/15 23/10/15 21/9/15
f 24/11/16 19/12/16 17/10/16 23/9/16
f 24/10/17 22/9/17 20/11/17 19/12/17
f 17/11/18 18/12/18 21/10/18 23/9/18

g Cube (161)
v 16.00988 14 -34.00801
v 15.00988 14 -34.00801
v 16.00988 15 -34.00801
v 15.00988 15 -34.00801
v 15.00988 14 -35.00801
v 15.00988 15 -35.00801
v 16.00988 14 -35.00801
v 16.00988 15 -35.00801

vt 1 0
vt 0 0
vt 1 1
vt 0 1

vn 0 0 1
vn -1 0 0
vn 0 0 -1
vn 1 0 0
vn 0 1 0
vn 0 -1 0

usemtl Wall
f 27/15/19 28/16/19 26/14/19 25/13/19
f 28/15/20 30/16/20 29/14/20 26/13/20
f 30/15/21 32/16/21 31/14/21 29/13/21
f 32/15/22 27/16/22 25/14/22 31/13/22
f 32/14/23 30/13/23 28/15/23 27/16/23
f 25/15/24 26/16/24 29/14/24 31/13/24

g Cube (162)
v 13.00988 12 -34.00801
v 12.00988 12 -34.00801
v 13.00988 13 -34.00801
v 12.00988 13 -34.00801
v 12.00988 12 -35.00801
v 12.00988 13 -35.00801
v 13.00988 12 -35.00801
v 13.00988 13 -35.00801

vt 1 0
vt 0 0
vt 1 1
vt 0 1

vn 0 0 1
vn -1 0 0
vn 0 0 -1
vn 1 0 0
vn 0 1 0
vn 0 -1 0

usemtl Wall
f 35/19/25 36/20/25 34/18/25 33/17/25
f 36/19/26 38/20/26 37/18/26 34/17/26
f 38/19/27 40/20/27 39/18/27 37/17/27
f 40/19/28 35/20/28 33/18/28 39/17/28
f 40/18/29 38/17/29 36/19/29 35/20/29
f 33/19/30 34/20/30 37/18/30 39/17/30

g Cube (163)
v 13.00988 13 -34.00801
v 12.00988 13 -34.00801
v 13.00988 14 -34.00801
v 12.00988 14 -34.00801
v 12.00988 13 -35.00801
v 12.00988 14 -35.00801
v 13.00988 13 -35.00801
v 13.00988 14 -35.00801

vt 1 0
vt 0 0
vt 1 1
vt 0 1

vn 0 0 1
vn -1 0 0
vn 0 0 -1
vn 1 0 0
vn 0 1 0
vn 0 -1 0

usemtl Wall
f 43/23/31 44/24/31 42/22/31 41/21/31
f 44/23/32 46/24/32 45/22/32 42/21/32
f 46/23/33 48/24/33 47/22/33 45/21/33
f 48/23/34 43/24/34 41/22/34 47/21/34
f 48/22/35 46/21/35 44/23/35 43/24/35
f 41/23/36 42/24/36 45/22/36 47/21/36

g Cube (164)
v 13.00988 14 -34.00801
v 12.00988 14 -34.00801
v 13.00988 15 -34.00801
v 12.00988 15 -34.00801
v 12.00988 14 -35.00801
v 12.00988 15 -35.00801
v 13.00988 14 -35.00801
v 13.00988 15 -35.00801

vt 1 0
vt 0 0
vt 1 1
vt 0 1

vn 0 0 1
vn -1 0 0
vn 0 0 -1
vn 1 0 0
vn 0 1 0
vn 0 -1 0

usemtl Wall
f 51/27/37 52/28/37 50/26/37 49/25/37
f 52/27/38 54/28/38 53/26/38 50/25/38
f 54/27/39 56/28/39 55/26/39 53/25/39
f 56/27/40 51/28/40 49/26/40 55/25/40
f 56/26/41 54/25/41 52/27/41 51/28/41
f 49/27/42 50/28/42 53/26/42 55/25/42

g Cube (165)
v 13.00988 11 -34.00801
v 12.00988 11 -34.00801
v 13.00988 12 -34.00801
v 12.00988 12 -34.00801
v 12.00988 11 -35.00801
v 12.00988 12 -35.00801
v 13.00988 11 -35.00801
v 13.00988 12 -35.00801

vt 1 0
vt 0 0
vt 1 1
vt 0 1

vn 0 0 1
vn -1 0 0
vn 0 0 -1
vn 1 0 0
vn 0 1 0
vn 0 -1 0

usemtl Wall
f 59/31/43 60/32/43 58/30/43 57/29/43
f 60/31/44 62/32/44 61/30/44 58/29/44
f 62/31/45 64/32/45 63/30/45 61/29/45
f 64/31/46 59/32/46 57/30/46 63/29/46
f 64/30/47 62/29/47 60/31/47 59/32/47
f 57/31/48 58/32/48 61/30/48 63/29/48

g Pipe (1)
v 11.88287 11.00115 -31.33735
v 11.41802 11.00115 -32.768
v 11.88287 23.17105 -31.33735
v 11.41802 23.17105 -32.768
v 11.72227 11.00115 -32.768
v 12.12901 11.00115 -31.51618
v 11.72227 23.17105 -32.768
v 12.12901 23.17105 -31.51618
v 13.09986 11.00115 -30.45315
v 13.09986 23.17105 -30.45315
v 13.19388 11.00115 -30.74251
v 13.19388 23.17105 -30.74251
v 14.60414 11.00115 -30.45315
v 14.60414 23.17105 -30.45315
v 14.51012 11.00115 -30.74251
v 14.51012 23.17105 -30.74251
v 15.82113 11.00115 -31.33735
v 15.82113 23.17105 -31.33735
v 15.57499 11.00115 -31.51618
v 15.57499 23.17105 -31.51618
v 16.28598 11.00115 -32.768
v 16.28598 23.17105 -32.768
v 15.98173 11.00115 -32.768
v 15.98173 23.17105 -32.768
v 15.82113 11.00115 -34.19866
v 15.82113 23.17105 -34.19866
v 15.57499 11.00115 -34.01982
v 15.57499 23.17105 -34.01982
v 14.60414 11.00115 -35.08286
v 14.60414 23.17105 -35.08286
v 14.51012 11.00115 -34.7935
v 14.51012 23.17105 -34.7935
v 13.09986 11.00115 -35.08286
v 13.09986 23.17105 -35.08286
v 13.19388 11.00115 -34.7935
v 13.19388 23.17105 -34.7935
v 11.88287 11.00115 -34.19866
v 11.88287 23.17105 -34.19866
v 12.12901 11.00115 -34.01983
v 12.12901 23.17105 -34.01983

vt 0.618034 -2.31625
vt -0.6180339 -2.31625
vt 0.618034 7.68375
vt -0.6180339 7.68375
vt 0.5407798 -2.31625
vt -0.5407797 -2.31625
vt 0.5407798 7.68375
vt -0.5407797 7.68375
vt -2 0
vt -1.618034 1.17557
vt -1.75 0
vt -1.41578 1.028624
vt 1.618034 1.17557
vt 2 0
vt 1.41578 1.028624
vt 1.75 0
vt -0.6180339 1.902113
vt -0.5407797 1.664349
vt 0.6180339 1.902113
vt 0.5407797 1.664349
vt 1.618034 -1.17557
vt 1.41578 -1.028624
vt -1.618034 -1.17557
vt -1.41578 -1.028624
vt 0.6180342 -1.902113
vt 0.5407799 -1.664349
vt -0.6180342 -1.902113
vt -0.5407799 -1.664349

vn -0.9845655 0 0.7153287
vn -1.21699 0 -5.720342E-08
vn 1.21699 0 3.813562E-08
vn 0.9845655 0 -0.7153288
vn -0.3760706 0 1.157426
vn 0.3760706 0 -1.157426
vn 0.3760706 0 1.157426
vn -0.3760706 0 -1.157426
vn 0.9845655 0 0.7153286
vn -0.9845655 0 -0.7153287
vn 0 -1.21699 0
vn 0 1.21699 0

usemtl ProBuilderDefault
f 67/35/49 68/36/50 66/34/50 65/33/49
f 71/39/51 72/40/52 70/38/52 69/37/51
f 74/35/53 67/36/49 65/34/49 73/33/53
f 72/39/52 76/40/54 75/38/54 70/37/52
f 78/35/55 74/36/53 73/34/53 77/33/55
f 76/39/54 80/40/56 79/38/56 75/37/54
f 82/35/57 78/36/55 77/34/55 81/33/57
f 80/39/56 84/40/58 83/38/58 79/37/56
f 86/35/51 82/36/57 81/34/57 85/33/51
f 84/39/58 88/40/50 87/38/50 83/37/58
f 90/35/52 86/36/51 85/34/51 89/33/52
f 88/39/50 92/40/49 91/38/49 87/37/50
f 94/35/54 90/36/52 89/34/52 93/33/54
f 92/39/49 96/40/53 95/38/53 91/37/49
f 98/35/56 94/36/54 93/34/54 97/33/56
f 96/39/53 100/40/55 99/38/55 95/37/53
f 102/35/58 98/36/56 97/34/56 101/33/58
f 100/39/55 104/40/57 103/38/57 99/37/55
f 68/35/50 102/36/58 101/34/58 66/33/50
f 104/39/57 71/40/51 69/38/51 103/37/57
f 69/43/59 70/44/59 65/42/59 66/41/59
f 72/47/60 71/48/60 68/46/60 67/45/60
f 70/44/59 75/50/59 73/49/59 65/42/59
f 76/52/60 72/47/60 67/45/60 74/51/60
f 75/50/59 79/52/59 77/51/59 73/49/59
f 80/50/60 76/52/60 74/51/60 78/49/60
f 79/52/59 83/47/59 81/45/59 77/51/59
f 84/44/60 80/50/60 78/49/60 82/42/60
f 83/47/59 87/48/59 85/46/59 81/45/59
f 88/43/60 84/44/60 82/42/60 86/41/60
f 87/48/59 91/54/59 89/53/59 85/46/59
f 92/56/60 88/43/60 86/41/60 90/55/60
f 91/54/59 95/58/59 93/57/59 89/53/59
f 96/60/60 92/56/60 90/55/60 94/59/60
f 95/58/59 99/60/59 97/59/59 93/57/59
f 100/58/60 96/60/60 94/59/60 98/57/60
f 99/60/59 103/56/59 101/55/59 97/59/59
f 104/54/60 100/58/60 98/57/60 102/53/60
f 103/56/59 69/43/59 66/41/59 101/55/59
f 71/48/60 104/54/60 102/53/60 68/46/60

