# ProBuilder 6.0.9
# https://unity3d.com/unity/features/worldbuilding/probuilder
# 2/26/2026 4:58:44 PM

mtllib ./Roof_1.mtl
o Roof 1

g roof (14)
v -30.9748 1 -24.99832
v -30.9748 1 -25.09832
v -26.9748 1 -24.99832
v -26.9748 1 -25.09832
v -26.9748 2.552915 -25.20277
v -30.9748 2.552915 -25.20277
v -26.9748 2.527033 -25.29936
v -30.9748 2.527033 -25.29936
v -26.9748 4 -25.80217
v -30.9748 4 -25.80217
v -26.9748 3.95 -25.88877
v -30.9748 3.95 -25.88877
v -26.9748 5.24264 -26.75568
v -30.9748 5.24264 -26.75568
v -26.9748 5.17193 -26.82639
v -30.9748 5.17193 -26.82639
v -26.9748 6.196153 -27.99832
v -30.9748 6.196153 -27.99832
v -26.9748 6.10955 -28.04832
v -30.9748 6.10955 -28.04832
v -26.9748 6.795555 -29.44541
v -30.9748 6.795555 -29.44541
v -26.9748 6.698962 -29.47129
v -30.9748 6.698962 -29.47129
v -26.9748 7 -30.99832
v -30.9748 7 -30.99832
v -26.9748 6.900001 -30.99832
v -30.9748 6.900001 -30.99832
v -26.9748 6.795555 -32.55124
v -30.9748 6.795555 -32.55124
v -26.9748 6.698962 -32.52535
v -30.9748 6.698962 -32.52535
v -26.9748 6.196153 -33.99832
v -30.9748 6.196153 -33.99832
v -26.9748 6.10955 -33.94832
v -30.9748 6.10955 -33.94832
v -26.9748 5.24264 -35.24096
v -30.9748 5.24264 -35.24096
v -26.9748 5.17193 -35.17025
v -30.9748 5.17193 -35.17025
v -26.9748 4.000001 -36.19447
v -30.9748 4.000001 -36.19447
v -26.9748 3.950001 -36.10787
v -30.9748 3.950001 -36.10787
v -26.9748 2.552915 -36.79388
v -30.9748 2.552915 -36.79388
v -26.9748 2.527033 -36.69728
v -30.9748 2.527033 -36.69728
v -26.9748 0.9999998 -36.99832
v -30.9748 0.9999998 -36.99832
v -26.9748 0.9999998 -36.89832
v -30.9748 0.9999998 -36.89832

vt 6 2
vt 5.9 2
vt 6 -2
vt 5.9 -2
vt 2 -3.757491
vt 2 -2.191177
vt -2 -3.757491
vt -2 -2.191177
vt -2 -2.204231
vt -2 -3.74444
vt 2 -2.204231
vt 2 -3.74444
vt 2 -3.554797
vt 2 -1.988482
vt -2 -3.554797
vt -2 -1.988482
vt -2 -2.001533
vt -2 -3.541742
vt 2 -2.001533
vt 2 -3.541742
vt 2 -3.163217
vt 2 -1.596903
vt -2 -3.163217
vt -2 -1.596903
vt -2 -1.609956
vt -2 -3.150165
vt 2 -1.609956
vt 2 -3.150165
vt -2.609441 -2
vt -1.043126 -2
vt -2.609441 2
vt -1.043126 2
vt 1.056179 -2
vt 2.596388 -2
vt 1.056179 2
vt 2.596388 2
vt -1.931207 -2
vt -0.364893 -2
vt -1.931207 2
vt -0.364893 2
vt 0.3779462 -2
vt 1.918155 -2
vt 0.3779462 2
vt 1.918155 2
vt -1.174736 -2
vt 0.3915785 -2
vt -1.174736 2
vt 0.3915785 2
vt -0.3785266 -2
vt 1.161683 -2
vt -0.3785266 2
vt 1.161683 2
vt -0.3915781 -2
vt 1.174736 -2
vt -0.3915781 2
vt 1.174736 2
vt -1.161683 -2
vt 0.3785263 -2
vt -1.161683 2
vt 0.3785263 2
vt 0.3648926 -2
vt 1.931208 -2
vt 0.3648926 2
vt 1.931208 2
vt -1.918156 -2
vt -0.3779465 -2
vt -1.918156 2
vt -0.3779465 2
vt 1.043127 -2
vt 2.60944 -2
vt 1.043127 2
vt 2.60944 2
vt -2.596388 -2
vt -1.056179 -2
vt -2.596388 2
vt -1.056179 2
vt -5.9 2
vt -6 2
vt -5.9 -2
vt -6 -2
vt 6 -3
vt 5.795555 -1.447085
vt 5.9 -3
vt 5.698962 -1.472967
vt -5.795555 -1.447085
vt -6 -3
vt -5.698962 -1.472967
vt -5.9 -3
vt 5.196152 2.384186E-07
vt 5.10955 -0.04999971
vt -5.196152 2.384186E-07
vt -5.10955 -0.04999971
vt 4.24264 1.242641
vt 4.17193 1.17193
vt -4.24264 1.242641
vt -4.17193 1.17193
vt 3 2.196153
vt 2.95 2.10955
vt -3 2.196153
vt -2.95 2.10955
vt 1.552914 2.795555
vt 1.527033 2.698962
vt -1.552914 2.795555
vt -1.527033 2.698962
vt -2.622683E-07 3
vt -2.578972E-07 2.9
vt -3 2.196152
vt -2.95 2.10955
vt 3 2.196152
vt 2.95 2.10955
vt -6 -3
vt -5.9 -3
vt 6 -3
vt 5.9 -3

vn 0 -1 0
vn 5.909472E-08 0.1305261 0.9914449
vn 5.757366E-08 0.2588191 0.9659258
vn -5.757366E-08 -0.258819 -0.9659258
vn -5.909472E-08 -0.1305264 -0.9914449
vn 5.161913E-08 0.5000002 0.8660253
vn -5.161914E-08 -0.5000001 -0.8660254
vn 4.214685E-08 0.7071068 0.7071068
vn -4.214685E-08 -0.7071068 -0.7071068
vn 2.980233E-08 0.8660253 0.5000001
vn -2.980233E-08 -0.8660253 -0.5000001
vn 1.542681E-08 0.9659258 0.258819
vn -1.542682E-08 -0.9659258 -0.2588191
vn -1.791685E-15 1 -3.005949E-08
vn -1.542682E-08 0.9659258 -0.2588191
vn 1.542682E-08 -0.9659258 0.258819
vn -2.980233E-08 0.8660253 -0.5000002
vn 2.980233E-08 -0.8660254 0.5000001
vn -4.214685E-08 0.7071068 -0.7071068
vn 4.214685E-08 -0.7071068 0.7071068
vn -5.161913E-08 0.5000002 -0.8660253
vn 5.161913E-08 -0.5000001 0.8660253
vn -5.757366E-08 0.2588191 -0.9659258
vn 5.506751E-08 -0.3826833 0.9238796
vn -5.909472E-08 0.130526 -0.9914449
vn 5.909472E-08 -0.1305263 0.9914449
vn -1 0 5.960464E-08
vn 1 0 -5.960464E-08

usemtl IMG_0915
f 1/1/1 2/2/1 4/4/1 3/3/1
f 3/5/2 5/6/3 6/8/3 1/7/2
f 7/9/4 4/10/5 2/12/5 8/11/4
f 5/13/3 9/14/6 10/16/6 6/15/3
f 11/17/7 7/18/4 8/20/4 12/19/7
f 9/21/6 13/22/8 14/24/8 10/23/6
f 15/25/9 11/26/7 12/28/7 16/27/9
f 13/29/8 17/30/10 18/32/10 14/31/8
f 19/33/11 15/34/9 16/36/9 20/35/11
f 17/37/10 21/38/12 22/40/12 18/39/10
f 23/41/13 19/42/11 20/44/11 24/43/13
f 21/45/12 25/46/14 26/48/14 22/47/12
f 27/49/1 23/50/13 24/52/13 28/51/1
f 25/53/14 29/54/15 30/56/15 26/55/14
f 31/57/16 27/58/1 28/60/1 32/59/16
f 29/61/15 33/62/17 34/64/17 30/63/15
f 35/65/18 31/66/16 32/68/16 36/67/18
f 33/69/17 37/70/19 38/72/19 34/71/17
f 39/73/20 35/74/18 36/76/18 40/75/20
f 37/24/19 41/23/21 42/21/21 38/22/19
f 43/28/22 39/27/20 40/25/20 44/26/22
f 41/16/21 45/15/23 46/13/23 42/14/21
f 47/20/24 43/19/22 44/17/22 48/18/24
f 45/8/23 49/7/25 50/5/25 46/6/23
f 51/12/26 47/11/26 48/9/26 52/10/26
f 52/77/1 50/78/1 49/80/1 51/79/1
f 1/81/27 6/82/27 8/84/27 2/83/27
f 5/85/28 3/86/28 4/88/28 7/87/28
f 6/82/27 10/89/27 12/90/27 8/84/27
f 9/91/28 5/85/28 7/87/28 11/92/28
f 10/89/27 14/93/27 16/94/27 12/90/27
f 13/95/28 9/91/28 11/92/28 15/96/28
f 14/93/27 18/97/27 20/98/27 16/94/27
f 17/99/28 13/95/28 15/96/28 19/100/28
f 18/97/27 22/101/27 24/102/27 20/98/27
f 21/103/28 17/99/28 19/100/28 23/104/28
f 22/101/27 26/105/27 28/106/27 24/102/27
f 25/105/28 21/103/28 23/104/28 27/106/28
f 26/105/27 30/103/27 32/104/27 28/106/27
f 29/101/28 25/105/28 27/106/28 31/102/28
f 30/103/27 34/107/27 36/108/27 32/104/27
f 33/109/28 29/101/28 31/102/28 35/110/28
f 34/107/27 38/95/27 40/96/27 36/108/27
f 37/93/28 33/109/28 35/110/28 39/94/28
f 38/95/27 42/91/27 44/92/27 40/96/27
f 41/89/28 37/93/28 39/94/28 43/90/28
f 42/91/27 46/85/27 48/87/27 44/92/27
f 45/82/28 41/89/28 43/90/28 47/84/28
f 46/85/27 50/111/27 52/112/27 48/87/27
f 49/113/28 45/82/28 47/84/28 51/114/28

g roof (11)
v -31.9748 1 -20.99832
v -32.0748 1 -20.99832
v -31.9748 1 -24.99832
v -32.0748 1 -24.99832
v -32.17925 2.552915 -24.99832
v -32.17925 2.552915 -20.99832
v -32.27584 2.527033 -24.99832
v -32.27584 2.527033 -20.99832
v -32.77865 4 -24.99832
v -32.77865 4 -20.99832
v -32.86525 3.95 -24.99832
v -32.86525 3.95 -20.99832
v -33.73216 5.24264 -24.99832
v -33.73216 5.24264 -20.99832
v -33.80288 5.17193 -24.99832
v -33.80288 5.17193 -20.99832
v -34.9748 6.196153 -24.99832
v -34.9748 6.196153 -20.99832
v -35.0248 6.10955 -24.99832
v -35.0248 6.10955 -20.99832
v -36.42189 6.795555 -24.99832
v -36.42189 6.795555 -20.99832
v -36.44777 6.698962 -24.99832
v -36.44777 6.698962 -20.99832
v -37.9748 7 -24.99832
v -37.9748 7 -20.99832
v -37.9748 6.900001 -24.99832
v -37.9748 6.900001 -20.99832
v -39.52772 6.795555 -24.99832
v -39.52772 6.795555 -20.99832
v -39.50183 6.698962 -24.99832
v -39.50183 6.698962 -20.99832
v -40.9748 6.196153 -24.99832
v -40.9748 6.196153 -20.99832
v -40.9248 6.10955 -24.99832
v -40.9248 6.10955 -20.99832
v -42.21745 5.24264 -24.99832
v -42.21745 5.24264 -20.99832
v -42.14673 5.17193 -24.99832
v -42.14673 5.17193 -20.99832
v -43.17096 4.000001 -24.99832
v -43.17096 4.000001 -20.99832
v -43.08435 3.950001 -24.99832
v -43.08435 3.950001 -20.99832
v -43.77036 2.552915 -24.99832
v -43.77036 2.552915 -20.99832
v -43.67377 2.527033 -24.99832
v -43.67377 2.527033 -20.99832
v -43.9748 0.9999998 -24.99832
v -43.9748 0.9999998 -20.99832
v -43.87481 0.9999998 -24.99832
v -43.87481 0.9999998 -20.99832

vt 6 2
vt 5.9 2
vt 6 -2
vt 5.9 -2
vt 2 -3.757491
vt 2 -2.191177
vt -2 -3.757491
vt -2 -2.191177
vt -2 -2.204231
vt -2 -3.74444
vt 2 -2.204231
vt 2 -3.74444
vt 2 -3.554797
vt 2 -1.988482
vt -2 -3.554797
vt -2 -1.988482
vt -2 -2.001533
vt -2 -3.541742
vt 2 -2.001533
vt 2 -3.541742
vt 2 -3.163217
vt 2 -1.596903
vt -2 -3.163217
vt -2 -1.596903
vt -2 -1.609956
vt -2 -3.150165
vt 2 -1.609956
vt 2 -3.150165
vt -2.609441 -2
vt -1.043126 -2
vt -2.609441 2
vt -1.043126 2
vt 1.056179 -2
vt 2.596388 -2
vt 1.056179 2
vt 2.596388 2
vt -1.931207 -2
vt -0.364893 -2
vt -1.931207 2
vt -0.364893 2
vt 0.3779462 -2
vt 1.918155 -2
vt 0.3779462 2
vt 1.918155 2
vt -1.174736 -2
vt 0.3915785 -2
vt -1.174736 2
vt 0.3915785 2
vt -0.3785266 -2
vt 1.161683 -2
vt -0.3785266 2
vt 1.161683 2
vt -0.3915781 -2
vt 1.174736 -2
vt -0.3915781 2
vt 1.174736 2
vt -1.161683 -2
vt 0.3785263 -2
vt -1.161683 2
vt 0.3785263 2
vt 0.3648926 -2
vt 1.931208 -2
vt 0.3648926 2
vt 1.931208 2
vt -1.918156 -2
vt -0.3779465 -2
vt -1.918156 2
vt -0.3779465 2
vt 1.043127 -2
vt 2.60944 -2
vt 1.043127 2
vt 2.60944 2
vt -2.596388 -2
vt -1.056179 -2
vt -2.596388 2
vt -1.056179 2
vt -5.9 2
vt -6 2
vt -5.9 -2
vt -6 -2
vt 6 -3
vt 5.795555 -1.447085
vt 5.9 -3
vt 5.698962 -1.472967
vt -5.795555 -1.447085
vt -6 -3
vt -5.698962 -1.472967
vt -5.9 -3
vt 5.196152 2.384186E-07
vt 5.10955 -0.04999971
vt -5.196152 2.384186E-07
vt -5.10955 -0.04999971
vt 4.24264 1.242641
vt 4.17193 1.17193
vt -4.24264 1.242641
vt -4.17193 1.17193
vt 3 2.196153
vt 2.95 2.10955
vt -3 2.196153
vt -2.95 2.10955
vt 1.552914 2.795555
vt 1.527033 2.698962
vt -1.552914 2.795555
vt -1.527033 2.698962
vt -2.622683E-07 3
vt -2.578972E-07 2.9
vt -3 2.196152
vt -2.95 2.10955
vt 3 2.196152
vt 2.95 2.10955
vt -6 -3
vt -5.9 -3
vt 6 -3
vt 5.9 -3

vn 0 -1 0
vn 0.9914449 0.1305261 0
vn 0.9659258 0.2588191 0
vn -0.9659258 -0.258819 0
vn -0.9914449 -0.1305264 0
vn 0.8660253 0.5000002 0
vn -0.8660254 -0.5000001 0
vn 0.7071068 0.7071068 0
vn -0.7071068 -0.7071068 0
vn 0.5000001 0.8660253 0
vn -0.5000001 -0.8660253 0
vn 0.258819 0.9659258 0
vn -0.2588191 -0.9659258 0
vn -3.005949E-08 1 0
vn -0.2588191 0.9659258 0
vn 0.258819 -0.9659258 0
vn -0.5000002 0.8660253 0
vn 0.5000001 -0.8660254 0
vn -0.7071068 0.7071068 0
vn 0.7071068 -0.7071068 0
vn -0.8660253 0.5000002 0
vn 0.8660253 -0.5000001 0
vn -0.9659258 0.2588191 0
vn 0.9238796 -0.3826833 0
vn -0.9914449 0.130526 0
vn 0.9914449 -0.1305263 0
vn 0 0 1
vn 0 0 -1

usemtl IMG_0915
f 53/115/29 54/116/29 56/118/29 55/117/29
f 55/119/30 57/120/31 58/122/31 53/121/30
f 59/123/32 56/124/33 54/126/33 60/125/32
f 57/127/31 61/128/34 62/130/34 58/129/31
f 63/131/35 59/132/32 60/134/32 64/133/35
f 61/135/34 65/136/36 66/138/36 62/137/34
f 67/139/37 63/140/35 64/142/35 68/141/37
f 65/143/36 69/144/38 70/146/38 66/145/36
f 71/147/39 67/148/37 68/150/37 72/149/39
f 69/151/38 73/152/40 74/154/40 70/153/38
f 75/155/41 71/156/39 72/158/39 76/157/41
f 73/159/40 77/160/42 78/162/42 74/161/40
f 79/163/29 75/164/41 76/166/41 80/165/29
f 77/167/42 81/168/43 82/170/43 78/169/42
f 83/171/44 79/172/29 80/174/29 84/173/44
f 81/175/43 85/176/45 86/178/45 82/177/43
f 87/179/46 83/180/44 84/182/44 88/181/46
f 85/183/45 89/184/47 90/186/47 86/185/45
f 91/187/48 87/188/46 88/190/46 92/189/48
f 89/138/47 93/137/49 94/135/49 90/136/47
f 95/142/50 91/141/48 92/139/48 96/140/50
f 93/130/49 97/129/51 98/127/51 94/128/49
f 99/134/52 95/133/50 96/131/50 100/132/52
f 97/122/51 101/121/53 102/119/53 98/120/51
f 103/126/54 99/125/54 100/123/54 104/124/54
f 104/191/29 102/192/29 101/194/29 103/193/29
f 53/195/55 58/196/55 60/198/55 54/197/55
f 57/199/56 55/200/56 56/202/56 59/201/56
f 58/196/55 62/203/55 64/204/55 60/198/55
f 61/205/56 57/199/56 59/201/56 63/206/56
f 62/203/55 66/207/55 68/208/55 64/204/55
f 65/209/56 61/205/56 63/206/56 67/210/56
f 66/207/55 70/211/55 72/212/55 68/208/55
f 69/213/56 65/209/56 67/210/56 71/214/56
f 70/211/55 74/215/55 76/216/55 72/212/55
f 73/217/56 69/213/56 71/214/56 75/218/56
f 74/215/55 78/219/55 80/220/55 76/216/55
f 77/219/56 73/217/56 75/218/56 79/220/56
f 78/219/55 82/217/55 84/218/55 80/220/55
f 81/215/56 77/219/56 79/220/56 83/216/56
f 82/217/55 86/221/55 88/222/55 84/218/55
f 85/223/56 81/215/56 83/216/56 87/224/56
f 86/221/55 90/209/55 92/210/55 88/222/55
f 89/207/56 85/223/56 87/224/56 91/208/56
f 90/209/55 94/205/55 96/206/55 92/210/55
f 93/203/56 89/207/56 91/208/56 95/204/56
f 94/205/55 98/199/55 100/201/55 96/206/55
f 97/196/56 93/203/56 95/204/56 99/198/56
f 98/199/55 102/225/55 104/226/55 100/201/55
f 101/227/56 97/196/56 99/198/56 103/228/56

